<?xml version="1.0" standalone="no"?><!DOCTYPE svg PUBLIC "-//W3C//DTD SVG 1.1//EN" "http://www.w3.org/Graphics/SVG/1.1/DTD/svg11.dtd"><svg t="1669874180988" class="icon" viewBox="0 0 1228 1024" version="1.1" xmlns="http://www.w3.org/2000/svg" p-id="15569" xmlns:xlink="http://www.w3.org/1999/xlink" width="307" height="256"><path d="M941.0048 467.456l-276.6848 134.5024c-31.5392 15.3088-68.3008 15.3088-99.84 0L285.7472 466.432v351.744c1.3312 4.096 2.048 8.448 2.048 13.0048v0.5632c0.5632 19.4048 27.9552 45.7216 82.1248 68.096 63.2832 26.0096 150.6816 41.216 244.48 41.216 93.7984 0 181.248-15.2064 244.48-41.2672 54.7328-22.528 82.1248-49.152 82.1248-68.608V467.456z m82.1248-39.936v408.832a28.8768 28.8768 0 0 1-0.512 5.5296c-2.9184 28.672-17.408 55.1424-40.96 78.0288-22.5792 22.016-53.76 41.0624-91.7504 56.6784-73.728 30.3616-171.6224 47.4112-275.5072 47.4112-103.8848 0-201.728-17.0496-275.456-47.4112-38.0416-15.616-69.2224-34.6112-91.8528-56.6784-21.0432-20.48-34.816-43.776-39.5776-69.0176a29.4912 29.4912 0 0 1-3.8912-13.9776V426.496L18.6368 336.5888a33.28 33.28 0 0 1 0-59.7504L564.48 11.52c31.5392-15.36 68.3008-15.36 99.84 0l545.8432 265.3184a33.28 33.28 0 0 1 0 59.7504L1023.1296 427.52z m-394.496-341.2992a32.5632 32.5632 0 0 0-28.4672 0l-453.632 220.5184 453.632 220.4672c9.0112 4.4032 19.456 4.4032 28.4672 0l453.632-220.4672-453.632-220.5184z" fill="#000000" p-id="15570"></path></svg>