<?xml version="1.0" standalone="no"?><!DOCTYPE svg PUBLIC "-//W3C//DTD SVG 1.1//EN" "http://www.w3.org/Graphics/SVG/1.1/DTD/svg11.dtd"><svg t="1666859772103" class="icon" viewBox="0 0 1024 1024" version="1.1" xmlns="http://www.w3.org/2000/svg" p-id="9046" xmlns:xlink="http://www.w3.org/1999/xlink" width="128" height="128"><path d="M923.35104 782.5152l-80.7168-123.4432V402.67776c0-52.224-23.74144-109.20448-61.7216-156.68224-42.73152-47.48288-99.70688-90.2144-161.42848-109.20448 0 0-4.75136 0-14.23872-4.74624v-9.49248c0-47.48288-42.73664-85.46304-94.96064-85.46304s-94.96064 37.98016-94.96064 85.46304v9.49248h-14.24384C339.3536 151.04 277.63712 193.77664 239.65696 241.24928a237.8496 237.8496 0 0 0-61.7216 161.42848v256.38912l-85.46304 132.93568c-9.49248 14.23872-9.49248 33.23392 0 52.21888 9.49248 14.24384 28.48256 23.74656 52.224 23.74656l735.9232-4.74624c33.23392 0 56.97536-23.74656 56.97536-52.224 0-9.4976-4.75136-18.9952-14.24384-28.48256zM510.2848 79.81568c23.74144 0 42.73152 18.99008 47.48288 37.98528H467.54816c0-18.98496 18.99008-37.98528 42.73664-37.98528z m370.176 731.01312H144.86016v-1.69984l90.20928-137.69216V402.67776c0-90.27072 81.9712-185.99936 186.81344-218.34752 2.9184-0.3328 7.22944-1.45408 16.25088-3.86048 11.88864-3.1744 28.09344-7.49568 44.47232-10.27584h55.36256c15.83104 2.68288 33.27488 6.85568 46.05952 9.92256 10.7776 2.5856 15.99488 3.80928 19.18464 4.18304 105.7024 37.22752 182.29248 128.90112 182.29248 218.37824v261.13536c0 11.17184 3.90656 16.10752 8.50432 18.048l83.85536 125.78816 2.60096 2.59584v0.58368h-0.00512zM610.97984 874.50112c-33.80736 54.11328-67.94752 55.09632-99.51232 55.09632-46.68416 0-75.09504-19.11808-92.51328-55.09632H359.94112c13.17376 60.88192 79.06304 108.22656 151.5264 108.22656 72.46848 0 138.35264-47.34464 151.5264-108.22656h-52.01408z" p-id="9047"></path></svg>